<svg width="25" height="24" viewBox="0 0 25 24" fill="none" xmlns="http://www.w3.org/2000/svg">
<path fill-rule="evenodd" clip-rule="evenodd" d="M2.77067 5.29292C2.79725 3.48474 4.294 2.05786 6.09758 2.05786H17.9521C19.7518 2.05786 21.2459 3.47853 21.2788 5.28111L22.7641 18.5466C22.7682 18.5836 22.7703 18.6207 22.7703 18.6579C22.7703 20.4892 21.2629 21.9419 19.443 21.9419H4.89759C3.07775 21.9419 1.57031 20.4892 1.57031 18.6579C1.57031 18.6279 1.57166 18.598 1.57435 18.5681L2.77067 5.29292ZM6.09758 4.05786C5.34678 4.05786 4.77031 4.65034 4.77031 5.34188C4.77031 5.37184 4.76897 5.40179 4.76628 5.43163L3.57091 18.6963C3.59177 19.3712 4.16071 19.9419 4.89759 19.9419H19.443C20.1765 19.9419 20.7436 19.3764 20.7694 18.7055L19.2856 5.45314C19.2815 5.4162 19.2794 5.37905 19.2794 5.34188C19.2794 4.65034 18.7029 4.05786 17.9521 4.05786H6.09758ZM8.57031 7.34191C9.1226 7.34191 9.57031 7.78962 9.57031 8.34191C9.57031 9.77785 10.7344 10.9419 12.1703 10.9419C13.6063 10.9419 14.7703 9.77785 14.7703 8.34191C14.7703 7.78962 15.218 7.34191 15.7703 7.34191C16.3226 7.34191 16.7703 7.78962 16.7703 8.34191C16.7703 10.8824 14.7108 12.9419 12.1703 12.9419C9.6298 12.9419 7.57031 10.8824 7.57031 8.34191C7.57031 7.78962 8.01803 7.34191 8.57031 7.34191Z" fill="currentColor"/>
</svg>
